<?xml version="1.0" standalone="no"?>
<!DOCTYPE svg PUBLIC "-//W3C//DTD SVG 20010904//EN"
 "http://www.w3.org/TR/2001/REC-SVG-20010904/DTD/svg10.dtd">
<svg version="1.0" xmlns="http://www.w3.org/2000/svg"
 width="1501.000000pt" height="1501.000000pt" viewBox="0 0 1501.000000 1501.000000"
 preserveAspectRatio="xMidYMid meet">
<metadata>
Created by potrace 1.11, written by Peter Selinger 2001-2013
</metadata>
<g transform="translate(0.000000,1501.000000) scale(0.100000,-0.100000)"
fill="#000000" stroke="none">
<path d="M6192 14669 c-310 -41 -580 -283 -663 -594 -20 -71 -22 -107 -23
-330 0 -362 24 -524 173 -1121 44 -177 82 -341 86 -365 l6 -44 -117 -135
c-221 -256 -461 -596 -628 -888 -459 -801 -621 -1581 -461 -2214 32 -127 85
-270 141 -379 l45 -86 -3 -119 -3 -118 -85 -19 c-917 -200 -1611 -467 -2031
-783 -363 -274 -525 -604 -450 -918 80 -335 357 -612 871 -870 349 -176 787
-332 1255 -447 72 -18 131 -33 133 -34 1 -1 -34 -159 -78 -351 -190 -816 -262
-1202 -316 -1679 -24 -217 -30 -753 -10 -934 84 -751 406 -1261 971 -1536 131
-64 490 -186 735 -249 406 -105 828 -171 1320 -206 484 -34 1483 -17 2030 35
1261 121 1986 540 2243 1295 122 358 138 787 57 1510 -59 523 -141 895 -391
1778 -55 195 -99 356 -97 358 3 2 96 29 208 59 674 185 1229 435 1562 703 286
232 439 540 399 804 -31 200 -112 348 -286 523 -171 172 -348 292 -640 435
-358 174 -802 327 -1296 445 l-155 37 4 82 c2 44 -1 132 -6 195 l-10 114 60
101 c310 513 350 1137 111 1746 -98 249 -174 382 -469 820 -284 423 -372 579
-440 775 -25 72 -28 93 -28 210 0 115 4 139 28 210 37 107 96 228 207 420 199
346 276 530 306 732 13 89 13 124 4 199 -33 269 -157 454 -360 534 -218 86
-529 13 -792 -184 -179 -135 -289 -289 -385 -538 -73 -189 -111 -377 -169
-838 -20 -157 -39 -301 -43 -320 l-8 -35 -454 -32 c-865 -61 -1318 -58 -1467
10 l-26 11 7 116 c4 63 18 221 32 350 14 129 31 296 39 370 49 459 39 761 -31
969 -99 294 -336 457 -612 420z m193 -268 c54 -24 121 -100 155 -175 94 -206
99 -437 25 -1116 -67 -619 -69 -715 -19 -796 34 -56 108 -106 193 -130 125
-37 207 -46 492 -51 301 -6 469 1 1033 42 186 14 390 25 453 25 119 0 150 8
186 48 24 26 57 194 91 457 83 635 116 780 229 1000 44 85 67 115 152 200 159
159 341 248 510 249 99 0 146 -15 203 -67 85 -79 127 -199 126 -357 -1 -166
-42 -270 -252 -639 -210 -369 -283 -563 -298 -791 -19 -278 108 -560 525
-1169 203 -297 275 -415 357 -586 257 -534 280 -1053 69 -1529 l-26 -59 -34
51 c-61 93 -88 123 -168 187 -144 115 -271 169 -402 169 -147 0 -288 -64 -406
-184 -193 -198 -378 -634 -505 -1193 -19 -84 -36 -162 -39 -174 -6 -26 -51
-41 -285 -97 -618 -149 -1358 -175 -2025 -71 -88 14 -193 33 -234 43 l-74 17
-33 158 c-63 302 -135 555 -221 772 -186 471 -373 681 -648 725 -221 35 -509
-130 -650 -374 l-28 -49 -14 44 c-27 92 -53 239 -63 371 -58 724 353 1705
1065 2543 76 90 110 122 136 130 41 12 79 65 79 111 0 45 -40 234 -105 494
-144 576 -185 823 -185 1110 1 282 33 384 164 515 153 152 331 208 471 146z
m-830 -5306 c51 -24 148 -122 203 -205 156 -235 303 -672 408 -1215 40 -211
54 -249 95 -270 60 -31 158 -6 174 45 5 15 12 20 23 16 289 -96 565 -130 1047
-129 576 1 1103 58 1450 158 17 5 23 -1 34 -30 34 -94 193 -100 229 -9 6 16
27 114 47 218 79 404 192 795 294 1011 94 199 220 363 317 411 65 32 146 26
235 -18 111 -56 200 -141 249 -241 157 -317 103 -911 -166 -1845 -35 -123 -64
-229 -64 -236 0 -15 -155 -64 -315 -100 -456 -102 -1153 -190 -1710 -216 -284
-13 -1077 -13 -1315 0 -497 27 -935 85 -1167 155 -103 32 -279 119 -297 148
-8 12 -41 119 -74 237 -172 607 -241 979 -249 1341 -10 381 43 556 204 684
136 109 247 137 348 90z m-785 -1103 c0 -15 11 -95 25 -177 19 -117 22 -152
12 -158 -6 -4 -52 -31 -102 -60 -233 -135 -366 -352 -326 -531 36 -162 155
-300 357 -415 159 -90 459 -200 741 -272 885 -226 2215 -291 3348 -164 911
103 1629 329 1892 597 112 115 167 260 143 381 -23 121 -114 259 -217 330
l-40 27 23 118 c13 64 29 159 35 210 9 66 16 92 26 92 18 0 265 -62 423 -106
885 -248 1496 -601 1669 -964 32 -67 36 -85 39 -175 3 -82 0 -110 -17 -159
-32 -91 -78 -160 -169 -257 -241 -255 -634 -470 -1202 -660 -777 -258 -1711
-421 -2845 -495 -330 -21 -1233 -30 -1595 -15 -1563 64 -2928 334 -3765 744
-572 281 -860 600 -806 895 81 441 836 879 2001 1161 205 50 328 78 343 80 4
1 7 -12 7 -27z m-110 -3857 c419 -102 1178 -215 1770 -264 486 -41 624 -46
1270 -46 733 0 1016 14 1620 81 406 44 988 137 1293 205 49 11 91 18 93 16 10
-10 -300 -362 -471 -533 -270 -270 -504 -469 -798 -677 -980 -696 -2184 -1149
-3467 -1307 -387 -47 -936 -71 -1252 -55 l-146 7 -40 86 c-185 400 -225 1002
-116 1762 24 170 86 529 104 600 5 19 14 61 20 93 13 64 0 61 120 32z"/>
<path d="M8752 10205 c-139 -39 -221 -148 -222 -295 0 -58 6 -86 24 -126 108
-232 437 -238 558 -11 19 35 23 58 23 137 0 79 -4 102 -23 137 -68 129 -222
196 -360 158z"/>
<path d="M6250 10117 c-131 -37 -220 -149 -223 -281 -4 -128 53 -227 162 -283
54 -28 73 -33 135 -33 40 0 93 7 119 16 61 20 131 84 165 148 23 43 27 64 27
136 0 98 -22 157 -83 217 -72 72 -205 107 -302 80z"/>
<path d="M7454 9621 c-18 -11 -47 -47 -67 -82 -98 -176 -282 -324 -416 -336
-107 -9 -151 -45 -151 -123 0 -56 22 -94 67 -115 72 -34 244 5 379 86 66 40
181 144 235 211 l37 47 18 -21 c49 -55 177 -144 278 -193 130 -63 333 -135
383 -135 98 0 155 102 105 185 -23 37 -31 41 -215 109 -231 86 -270 110 -393
241 -135 146 -187 171 -260 126z"/>
</g>
</svg>
